<mxfile host="app.diagrams.net" modified="2022-02-08T03:08:01.306Z" agent="5.0 (Windows NT 10.0; Win64; x64) AppleWebKit/537.36 (KHTML, like Gecko) Chrome/98.0.4758.81 Safari/537.36" etag="7g1PdWVC9VN0-U-javY6" version="16.4.5" type="github">
  <diagram id="Qe44sBwqiMRDw6P2YT11" name="第 1 页">
    <mxGraphModel dx="1822" dy="762" grid="0" gridSize="10" guides="1" tooltips="1" connect="1" arrows="1" fold="1" page="0" pageScale="1" pageWidth="827" pageHeight="1169" math="0" shadow="0">
      <root>
        <mxCell id="0" />
        <mxCell id="1" parent="0" />
        <mxCell id="_Wh5qGkGixq61LIrMTZ2-6" style="edgeStyle=orthogonalEdgeStyle;rounded=0;orthogonalLoop=1;jettySize=auto;html=1;entryX=0;entryY=0.5;entryDx=0;entryDy=0;" parent="1" source="_Wh5qGkGixq61LIrMTZ2-1" target="_Wh5qGkGixq61LIrMTZ2-2" edge="1">
          <mxGeometry relative="1" as="geometry" />
        </mxCell>
        <mxCell id="_Wh5qGkGixq61LIrMTZ2-1" value="CustomInterceptor&lt;br&gt;（preHandle）" style="rounded=1;whiteSpace=wrap;html=1;fillColor=#cdeb8b;strokeColor=#36393d;" parent="1" vertex="1">
          <mxGeometry x="-10" y="80" width="120" height="60" as="geometry" />
        </mxCell>
        <mxCell id="_Wh5qGkGixq61LIrMTZ2-8" style="edgeStyle=orthogonalEdgeStyle;rounded=0;orthogonalLoop=1;jettySize=auto;html=1;entryX=0;entryY=0.5;entryDx=0;entryDy=0;fontColor=#FF0000;" parent="1" source="_Wh5qGkGixq61LIrMTZ2-2" target="_Wh5qGkGixq61LIrMTZ2-3" edge="1">
          <mxGeometry relative="1" as="geometry" />
        </mxCell>
        <mxCell id="_Wh5qGkGixq61LIrMTZ2-2" value="HandlerAdapter&lt;br&gt;(Handle)" style="rounded=1;whiteSpace=wrap;html=1;fillColor=#ffcc99;strokeColor=#36393d;" parent="1" vertex="1">
          <mxGeometry x="200" y="80" width="120" height="60" as="geometry" />
        </mxCell>
        <mxCell id="_Wh5qGkGixq61LIrMTZ2-9" style="edgeStyle=orthogonalEdgeStyle;rounded=0;orthogonalLoop=1;jettySize=auto;html=1;entryX=0;entryY=0.5;entryDx=0;entryDy=0;fontColor=#FF0000;" parent="1" source="_Wh5qGkGixq61LIrMTZ2-3" target="_Wh5qGkGixq61LIrMTZ2-5" edge="1">
          <mxGeometry relative="1" as="geometry" />
        </mxCell>
        <mxCell id="_Wh5qGkGixq61LIrMTZ2-3" value="CustomInterceptor&lt;br&gt;（postHandle）" style="rounded=1;whiteSpace=wrap;html=1;fillColor=#cdeb8b;strokeColor=#36393d;" parent="1" vertex="1">
          <mxGeometry x="364" y="80" width="120" height="60" as="geometry" />
        </mxCell>
        <mxCell id="_Wh5qGkGixq61LIrMTZ2-4" value="CustomInterceptor&lt;br&gt;（afterCompletion）" style="rounded=1;whiteSpace=wrap;html=1;fillColor=#cdeb8b;strokeColor=#36393d;" parent="1" vertex="1">
          <mxGeometry x="700" y="80" width="120" height="60" as="geometry" />
        </mxCell>
        <mxCell id="_Wh5qGkGixq61LIrMTZ2-10" style="edgeStyle=orthogonalEdgeStyle;rounded=0;orthogonalLoop=1;jettySize=auto;html=1;entryX=0;entryY=0.5;entryDx=0;entryDy=0;fontColor=#FF0000;" parent="1" source="_Wh5qGkGixq61LIrMTZ2-5" target="_Wh5qGkGixq61LIrMTZ2-4" edge="1">
          <mxGeometry relative="1" as="geometry" />
        </mxCell>
        <mxCell id="_Wh5qGkGixq61LIrMTZ2-5" value="DispatcherServlet&lt;br&gt;(render)" style="rounded=1;whiteSpace=wrap;html=1;fillColor=#ffcc99;strokeColor=#36393d;" parent="1" vertex="1">
          <mxGeometry x="530" y="80" width="120" height="60" as="geometry" />
        </mxCell>
        <mxCell id="_Wh5qGkGixq61LIrMTZ2-7" value="return true;" style="text;html=1;align=center;verticalAlign=middle;resizable=0;points=[];autosize=1;strokeColor=none;fillColor=none;fontColor=#FF0000;fontStyle=1" parent="1" vertex="1">
          <mxGeometry x="110" y="90" width="80" height="20" as="geometry" />
        </mxCell>
      </root>
    </mxGraphModel>
  </diagram>
</mxfile>
